# xmcd CD database file
#
# Track frame offsets:
#	150
#	10989
#	30242
#	43226
#	54534
#	66651
#	78952
#	88988
#	100358
#	111522
#	121779
#	135688
#	149345
#	159893
#	173608
#
# Disc length: 2478 seconds
#
# Revision: 0
# Processed by: cddbd v1.5.2PL0 Copyright (c) Steve Scherf et al.
# Submitted via: CDex 1.51
#
DISCID=cb09ac0f
DTITLE=Various artist - Country classic - CD2
DYEAR=2005
DGENRE=Country
TTITLE0=Dean Martin and Frank Sinatra - King of the road
TTITLE1=Nity Gritty Dirt Band - Mr. Bojangles
TTITLE2=Don Williams - Where do we go from here
TTITLE3=Porter Wagoner - Misery loves company
TTITLE4=Johnny Paycheck - Take this job and shove it
TTITLE5=Freddy Fender - Wasted days and wasted nights
TTITLE6=Faron Young - Hello walls
TTITLE7=Kitty Wells - Heartbreak U.S.A.
TTITLE8=Don Gibson - Oh, lonesome me
TTITLE9=Dolly Parton - Release me
TTITLE10=Bill Monroe - Blue moon of Kentucky
TTITLE11=The Kingston trio - Tom Dooley
TTITLE12=Jimmie Rodgers - Kisses between than wine
TTITLE13=Patti Page - Tennessee waltz
TTITLE14=Charlie Rich - Behind closed doors
EXTD=YEAR: 2005
EXTT0=
EXTT1=
EXTT2=
EXTT3=
EXTT4=
EXTT5=
EXTT6=
EXTT7=
EXTT8=
EXTT9=
EXTT10=
EXTT11=
EXTT12=
EXTT13=
EXTT14=
PLAYORDER=
